<svg xmlns="http://www.w3.org/2000/svg" viewBox="0 0 175 175">
  <path fill="#1b1a1b" d="M79.084117 14.903902c13.519999-.8146 7.881 4.0346 15.675999 13.5167 1.535 1.8672 5.098 3.3748 7.194004 5.0501 3.578 2.8607 1.185 8.5647 1.77 12.9431.759 5.6767 4.437 10.625 8.714 13.8988 7.899 6.0461 14.104 4.5694 22.763 2.5067 4.253-1.0133 6.001 7.058 9.246 10.356 4.606 4.682 8.65 4.421 13.843 7.506 1.296.77 1.976 4.268 2.065 5.893 1.122 20.472998-4.772 39.802998-17.856 55.458998-13.343 16.024-32.588 25.985-53.375003 27.626-.271.038-.542.069-.814.094-19.765 1.717-40.652-5.61-55.686-18.421-15.574-13.253-25.2530004-32.144-26.9110004-52.527-1.756-20.658998 4.8610004-41.157998 18.3640004-56.891898 14.46-16.8996 33.095-25.3259 55.007-27.0095"/>
  <path fill="#fff" d="M79.082117 21.936902c.729-.0313 3.435-.3551 3.794.346 3.753 7.3364 6.469 11.5813 13.631999 16.0285-.154 3.3447-.204 6.3944.457 9.6874 1.518 7.7497 6.086004 14.5647 12.677004 18.9141 7.969 5.2704 15.572 5.4854 24.545 3.6714 5.107 8.592 9.63 12.168 19.079 15.386.181 5.082.335 10.066-.344 15.114998-4.683 34.833-30.663 57.906-64.737003 61.67-19.264.715-35.744-3.833-50.717-16.471-14.256-12.016-23.159-29.199-24.752-47.775-1.671-18.770998 4.254-37.428298 16.449-51.796298 13.126-15.5126 29.925-23.1241 49.917-24.7761"/>
  <path fill="#fec225" d="M74.819117 29.391702c.786-.1123 3.047-.5487 3.538.158 3.445 4.9561 6.357 8.5983 10.866 12.6971.049.9622.113 1.9236.193 2.8837.819 9.7642 5.478999 18.8044 12.956003 25.1368 8.263 6.935 17.644 9.159 28.213 8.25 6.041 6.759 7.816 8.588 15.964 12.718-1.453 33.831998-20.767 57.996998-54.620004 64.022998-16.393999 2.308-33.041999-1.877-46.394999-11.664-13.688-9.949-22.81-24.976-25.321-41.711-2.532-16.760998 1.724-33.840998 11.826-47.454398 10.609-14.2727 25.323-22.481 42.78-25.0372"/>
  <path fill="#1b1a1b" d="M41.818117 62.297402c8.736-1.5159 17.058 4.3057 18.628 13.0329 1.571 8.726-4.198 17.084-12.915 18.71-8.794 1.64-17.243-4.192-18.828-12.997-1.585-8.804 4.3-17.2164 13.115-18.7459m77.318003 30.4339c6.478-1.613 13.034 2.346 14.622 8.829998 1.587 6.484-2.397 13.024-8.888 14.586-6.454 1.554-12.95-2.404-14.529-8.852s2.353-12.958998 8.795-14.563998M88.611117 126.0443c6.126999-.866 11.813003 3.354 12.757003 9.471.945 6.116-3.203004 11.855-9.307004 12.877-4.017999.673-8.086999-.868-10.651999-4.033s-3.229-7.465-1.738-11.257c1.491-3.791 4.906-6.487 8.94-7.058m-43.788-14.079c3.117-.981 6.521-.199 8.898 2.043s3.356 5.595 2.558 8.764c-.797 3.169-3.245 5.659-6.4 6.509-4.741 1.278-9.633-1.469-11.009-6.182s1.27-9.661 5.953-11.134m35.148-27.635998c4.401-1.086 8.855 1.579 9.98 5.97 1.125 4.392-1.5 8.869998-5.882 10.032998-4.437 1.178-8.982-1.488-10.121-5.933998-1.139-4.447 1.566-8.969 6.023-10.069m-10.635-46.4173c4.525-.5837 8.665 2.6141 9.244 7.1396.579 4.5256-2.623 8.6625-7.15 9.2364-4.519.5731-8.648-2.6232-9.226-7.1418-.578-4.5187 2.614-8.6514 7.132-9.2342"/>
  <path fill="#fec225" d="M128.61412 24.330802c7.443-.8793 14.195 4.4285 15.098 11.8687.903 7.4403-4.383 14.2089-11.821 15.1356-7.47.9308-14.276-4.3845-15.183-11.8584-.907-7.4738 4.43-14.2627 11.906-15.1459m32.476 11.7272c3.751-.689 7.357 1.7686 8.088 5.5114.731 3.7427-1.687 7.3765-5.421 8.1489-2.453.5073-4.989-.3427-6.641-2.2256-1.652-1.883-2.165-4.5084-1.342-6.8744.822-2.366 2.852-4.1076 5.316-4.5603m-51.428-27.6417998c2.408-.7963 5.058-.2183 6.915 1.508 1.857 1.7262998 2.627 4.3269998 2.008 6.7859998-.618 2.459-2.527 4.3861-4.98 5.0283-3.63.9505-7.36-1.1527-8.425-4.7512s.919-7.3926998 4.482-8.5710998m43.889-3.3281999c2.602-1.0195 5.536.279 6.531 2.8903999.996 2.6112998-.33 5.5330998-2.951 6.5038998-2.586.9581-5.461-.3465-6.443-2.9237-.982-2.5771998.295-5.4644997 2.863-6.4705997"/>
</svg>
