<?xml version="1.0" encoding="UTF-8" standalone="no"?>
<svg
   width="175"
   height="175"
   viewBox="0 0 175 175"
   version="1.1"
   id="svg48"
   sodipodi:docname="icon.dev.svg"
   inkscape:version="1.4.4 (dcaf3e7, 2026-05-05)"
   inkscape:export-filename="../../public/icon-512.dev.png"
   inkscape:export-xdpi="280.86856"
   inkscape:export-ydpi="280.86856"
   xmlns:inkscape="http://www.inkscape.org/namespaces/inkscape"
   xmlns:sodipodi="http://sodipodi.sourceforge.net/DTD/sodipodi-0.dtd"
   xmlns="http://www.w3.org/2000/svg"
   xmlns:svg="http://www.w3.org/2000/svg">
  <defs
     id="defs48" />
  <sodipodi:namedview
     id="namedview48"
     pagecolor="#ffffff"
     bordercolor="#000000"
     borderopacity="0.25"
     inkscape:showpageshadow="2"
     inkscape:pageopacity="0.0"
     inkscape:pagecheckerboard="0"
     inkscape:deskcolor="#d1d1d1"
     showgrid="true"
     inkscape:zoom="1.7420457"
     inkscape:cx="119.97389"
     inkscape:cy="101.8917"
     inkscape:window-width="1099"
     inkscape:window-height="1056"
     inkscape:window-x="-1"
     inkscape:window-y="33"
     inkscape:window-maximized="0"
     inkscape:current-layer="svg48">
    <inkscape:grid
       id="grid48"
       units="px"
       originx="0"
       originy="0"
       spacingx="1"
       spacingy="1"
       empcolor="#0099e5"
       empopacity="0.30196078"
       color="#0099e5"
       opacity="0.14901961"
       empspacing="5"
       enabled="true"
       visible="true" />
  </sodipodi:namedview>
  <path fill="#fff" d="M79.082117 21.936902c.729-.0313 3.435-.3551 3.794.346 3.753 7.3364 6.469 11.5813 13.631999 16.0285-.154 3.3447-.204 6.3944.457 9.6874 1.518 7.7497 6.086004 14.5647 12.677004 18.9141 7.969 5.2704 15.572 5.4854 24.545 3.6714 5.107 8.592 9.63 12.168 19.079 15.386.181 5.082.335 10.066-.344 15.114998-4.683 34.833-30.663 57.906-64.737003 61.67-19.264.715-35.744-3.833-50.717-16.471-14.256-12.016-23.159-29.199-24.752-47.775-1.671-18.770998 4.254-37.428298 16.449-51.796298 13.126-15.5126 29.925-23.1241 49.917-24.7761"/>
  <path
     fill="#fec225"
     d="m 74.819117,29.391702 c 0.786,-0.1123 3.047,-0.5487 3.538,0.158 3.445,4.9561 6.357,8.5983 10.866,12.6971 0.049,0.9622 0.113,1.9236 0.193,2.8837 0.819,9.7642 5.478999,18.8044 12.956003,25.1368 8.263,6.935 17.644,9.159 28.213,8.25 6.041,6.759 7.816,8.588 15.964,12.718 -1.453,33.831998 -20.767,57.996998 -54.620004,64.022998 -16.393999,2.308 -33.041999,-1.877 -46.394999,-11.664 -13.688,-9.949 -22.81,-24.976 -25.321,-41.711 -2.532,-16.760998 1.724,-33.840998 11.826,-47.454398 10.609,-14.2727 25.323,-22.481 42.78,-25.0372 z"
     id="path12"
     style="display:inline"
     inkscape:label="fill" />
  <g
     id="layer3"
     inkscape:label="inside-dots">
    <path
       fill="#1b1a1b"
       d="m 41.818117,62.297402 c 8.736,-1.5159 17.058,4.3057 18.628,13.0329 1.571,8.726 -4.198,17.084 -12.915,18.71 -8.794,1.64 -17.243,-4.192 -18.828,-12.997 -1.585,-8.804 4.3,-17.2164 13.115,-18.7459 z"
       id="path13"
       style="display:inline"
       inkscape:label="dot-inside-1" />
    <path
       fill="#1b1a1b"
       d="m 119.13612,92.731302 c 6.478,-1.613 13.034,2.346 14.622,8.829998 1.587,6.484 -2.397,13.024 -8.888,14.586 -6.454,1.554 -12.95,-2.404 -14.529,-8.852 -1.579,-6.448 2.353,-12.958998 8.795,-14.563998 z"
       id="path14"
       style="display:inline"
       inkscape:label="dot-inside-2" />
    <path
       fill="#1b1a1b"
       d="m 88.611117,126.0443 c 6.126999,-0.866 11.813003,3.354 12.757003,9.471 0.945,6.116 -3.203004,11.855 -9.307004,12.877 -4.017999,0.673 -8.086999,-0.868 -10.651999,-4.033 -2.565,-3.165 -3.229,-7.465 -1.738,-11.257 1.491,-3.791 4.906,-6.487 8.94,-7.058 z"
       id="path15"
       style="display:inline"
       inkscape:label="dot-inside-3" />
    <path
       fill="#1b1a1b"
       d="m 44.823117,111.9653 c 3.117,-0.981 6.521,-0.199 8.898,2.043 2.377,2.242 3.356,5.595 2.558,8.764 -0.797,3.169 -3.245,5.659 -6.4,6.509 -4.741,1.278 -9.633,-1.469 -11.009,-6.182 -1.376,-4.713 1.27,-9.661 5.953,-11.134 z"
       id="path16"
       style="display:inline"
       inkscape:label="dot-inside-4" />
    <path
       fill="#1b1a1b"
       d="m 79.971117,84.329302 c 4.401,-1.086 8.855,1.579 9.98,5.97 1.125,4.392 -1.5,8.869998 -5.882,10.032998 -4.437,1.178 -8.982,-1.488 -10.121,-5.933998 -1.139,-4.447 1.566,-8.969 6.023,-10.069 z"
       id="path17"
       style="display:inline"
       inkscape:label="dot-inside-5" />
    <path
       fill="#1b1a1b"
       d="m 69.336117,37.912002 c 4.525,-0.5837 8.665,2.6141 9.244,7.1396 0.579,4.5256 -2.623,8.6625 -7.15,9.2364 -4.519,0.5731 -8.648,-2.6232 -9.226,-7.1418 -0.578,-4.5187 2.614,-8.6514 7.132,-9.2342 z"
       id="path18"
       style="display:inline"
       inkscape:label="dot-inside-6" />
  </g>
  <g
     id="layer2"
     inkscape:label="outside-dots">
    <path
       fill="#fec225"
       d="m 153.55112,5.0880023 c 2.602,-1.0195 5.536,0.279 6.531,2.8903999 0.996,2.6112998 -0.33,5.5330998 -2.951,6.5038998 -2.586,0.9581 -5.461,-0.3465 -6.443,-2.9237 -0.982,-2.5771998 0.295,-5.4644997 2.863,-6.4705997 z"
       id="path48"
       style="display:inline"
       inkscape:label="dot-outside-4" />
    <path
       fill="#fec225"
       d="m 128.61412,24.330802 c 7.443,-0.8793 14.195,4.4285 15.098,11.8687 0.903,7.4403 -4.383,14.2089 -11.821,15.1356 -7.47,0.9308 -14.276,-4.3845 -15.183,-11.8584 -0.907,-7.4738 4.43,-14.2627 11.906,-15.1459 z"
       id="path36"
       style="display:inline"
       inkscape:label="dot-outside-1" />
    <path
       fill="#fec225"
       d="m 161.09012,36.058002 c 3.751,-0.689 7.357,1.7686 8.088,5.5114 0.731,3.7427 -1.687,7.3765 -5.421,8.1489 -2.453,0.5073 -4.989,-0.3427 -6.641,-2.2256 -1.652,-1.883 -2.165,-4.5084 -1.342,-6.8744 0.822,-2.366 2.852,-4.1076 5.316,-4.5603 z"
       id="path38"
       style="display:inline"
       inkscape:label="dot-outside-2" />
    <path
       fill="#fec225"
       d="m 109.66212,8.4162022 c 2.408,-0.7963 5.058,-0.2183 6.915,1.508 1.857,1.7262998 2.627,4.3269998 2.008,6.7859998 -0.618,2.459 -2.527,4.3861 -4.98,5.0283 -3.63,0.9505 -7.36,-1.1527 -8.425,-4.7512 -1.065,-3.5985 0.919,-7.3926998 4.482,-8.5710998 z"
       id="path39"
       style="display:inline"
       inkscape:label="dot-outside-3" />
  </g>
  <g
     id="g1"
     inkscape:label="dev">
    <rect
       style="fill:#ff0000;stroke-width:0.937761"
       id="rect1"
       width="142.78117"
       height="42.018459"
       x="11.422494"
       y="79.141571"
       inkscape:label="background" />
    <path
       d="m 64.795894,100.39864 q 0,4.67801 -2.042536,8.48032 -2.019585,3.80232 -5.393212,5.89936 -2.340884,1.45178 -5.232564,2.09704 -2.868731,0.64523 -7.573448,0.64523 H 35.924992 V 83.207565 h 8.537342 q 5.003065,0 7.940645,0.737418 2.96053,0.714375 5.003065,1.981814 3.488378,2.189212 5.439114,5.830218 1.950736,3.641008 1.950736,8.641625 z m -4.750617,-0.0691 q 0,-4.03275 -1.399941,-6.798076 -1.39994,-2.76532 -4.17687,-4.35538 -2.019587,-1.152219 -4.291622,-1.590061 -2.272033,-0.460887 -5.439112,-0.460887 H 40.46906 v 26.477944 h 4.268672 q 3.281828,0 5.714511,-0.48394 2.455633,-0.48393 4.498168,-1.79746 2.547434,-1.63615 3.809676,-4.30929 1.28519,-2.67313 1.28519,-6.68285 z m 34.608362,17.19107 H 72.139846 V 83.207565 h 22.513793 v 4.055804 H 76.683915 v 9.402096 h 17.969724 v 4.055795 H 76.683915 v 12.74352 H 94.653639 Z M 128.80303,83.207571 116.36422,117.52059 h -6.05877 L 97.866627,83.207565 H 102.732 l 10.71758,30.188095 10.71759,-30.188095 z"
       id="text1"
       style="font-size:26.6667px;line-height:0.1;font-family:'Noto Sans Old Persian';-inkscape-font-specification:'Noto Sans Old Persian';text-align:center;text-anchor:middle;fill:#ffffff;stroke-width:1.76617"
       aria-label="DEV" />
  </g>
  <path
     id="path10"
     style="display:inline"
     d="m 83.320312,14.861328 c -1.154939,-0.07315 -2.546328,-0.05886 -4.236328,0.04297 -21.912,1.6836 -40.547812,10.110166 -55.007812,27.009765 C 10.573172,57.647962 3.9568906,78.14569 5.7128906,98.804688 7.3708906,119.18769 17.051,138.07903 32.625,151.33203 c 15.034,12.811 35.920547,20.13888 55.685547,18.42188 0.272,-0.025 0.543453,-0.0557 0.814453,-0.0937 20.787,-1.641 40.032,-11.60296 53.375,-27.62696 13.084,-15.656 18.97747,-34.98598 17.85547,-55.458981 -0.089,-1.625 -0.76845,-5.122578 -2.06445,-5.892578 -5.193,-3.085 -9.23775,-2.82386 -13.84375,-7.50586 -3.245,-3.298 -4.9931,-11.370722 -9.2461,-10.357422 -8.659,2.0627 -14.86467,3.540241 -22.76367,-2.505859 -4.277,-3.2738 -7.95389,-8.221738 -8.71289,-13.898438 -0.585,-4.378399 1.80847,-10.082659 -1.76953,-12.943359 -2.096006,-1.6753 -5.660314,-3.183581 -7.195314,-5.050781 C 87.939142,20.123084 91.404888,15.373415 83.320312,14.861328 Z m -2.203124,6.97461 c 0.8125,0.0028 1.580265,0.09671 1.759765,0.447265 3.753,7.3364 6.46786,11.580144 13.630859,16.027344 -0.153999,3.3447 -0.203968,6.3945 0.457032,9.6875 1.518,7.7497 6.086736,14.564662 12.677736,18.914062 7.969,5.2704 15.57192,5.485875 24.54492,3.671875 5.107,8.592 9.62912,12.168719 19.07812,15.386719 0.18101,5.082 0.33526,10.066237 -0.34374,15.115237 -4.683,34.833 -30.66233,57.90592 -64.736333,61.66992 -19.264,0.715 -35.743797,-3.8327 -50.716797,-16.4707 -14.256,-12.016 -23.158953,-29.19939 -24.751953,-47.775394 -1.671,-18.770998 4.254219,-37.428875 16.449219,-51.796875 13.126,-15.5126 29.924015,-23.123391 49.916015,-24.775391 0.3645,-0.01565 1.222657,-0.104337 2.035157,-0.101562 z"
     inkscape:label="outline" />

</svg>

